<?xml version="1.0" encoding="UTF-8"?>
<svg version="1.1" xmlns="http://www.w3.org/2000/svg" width="1000" height="250">
<path d="M0 0 C2.98941738 1.00999312 5.18850888 2.20828237 7.75390625 4.03515625 C8.92566406 4.85693359 8.92566406 4.85693359 10.12109375 5.6953125 C10.99121094 6.32759766 10.99121094 6.32759766 11.87890625 6.97265625 C12.28753906 6.48152344 12.69617188 5.99039063 13.1171875 5.484375 C16.10957147 2.91663089 19.06362863 3.78501965 22.87890625 3.97265625 C23.64116096 7.11695694 23.85734002 9.10205361 23.31640625 12.34765625 C23.49913063 16.02475938 23.49913063 16.02475938 25.9609375 17.87109375 C28.55052977 19.6682632 31.19101005 21.32733797 33.87890625 22.97265625 C35.22406172 23.95669616 36.56199489 24.95112688 37.87890625 25.97265625 C37.38390625 27.45765625 37.38390625 27.45765625 36.87890625 28.97265625 C33.90890625 28.97265625 30.93890625 28.97265625 27.87890625 28.97265625 C27.8946167 29.90126465 27.91032715 30.82987305 27.92651367 31.78662109 C27.97759478 35.22694454 28.01523232 38.66686601 28.04370117 42.10742188 C28.05880225 43.59739534 28.07928483 45.08732426 28.10522461 46.57714844 C28.14155209 48.71690855 28.15861846 50.85608191 28.171875 52.99609375 C28.18758545 54.28435059 28.2032959 55.57260742 28.21948242 56.89990234 C28.10709229 57.91391113 27.99470215 58.92791992 27.87890625 59.97265625 C24.59032145 62.16504612 23.61323065 62.22477968 19.79663086 62.23144531 C18.76223373 62.23774963 17.72783661 62.24405396 16.66209412 62.25054932 C15.54641556 62.24650085 14.430737 62.24245239 13.28125 62.23828125 C11.56344078 62.24115143 11.56344078 62.24115143 9.81092834 62.24407959 C7.38916809 62.24544119 4.96740054 62.24174652 2.5456543 62.23339844 C-1.17220348 62.22268906 -4.88957909 62.2332999 -8.60742188 62.24609375 C-10.95703232 62.24477234 -13.30664247 62.24221034 -15.65625 62.23828125 C-16.77395279 62.24232971 -17.89165558 62.24637817 -19.04322815 62.25054932 C-20.5900956 62.24109283 -20.5900956 62.24109283 -22.16821289 62.23144531 C-23.07849747 62.22985413 -23.98878204 62.22826294 -24.926651 62.22662354 C-27.12109375 61.97265625 -27.12109375 61.97265625 -29.12109375 59.97265625 C-29.34814453 56.89990234 -29.34814453 56.89990234 -29.31640625 52.99609375 C-29.31357635 52.31084625 -29.31074646 51.62559875 -29.30783081 50.91958618 C-29.29662656 48.72876598 -29.27152234 46.53835309 -29.24609375 44.34765625 C-29.23606423 42.86328715 -29.22693833 41.37891165 -29.21875 39.89453125 C-29.19668669 36.25377364 -29.16215551 32.61325469 -29.12109375 28.97265625 C-32.42109375 28.97265625 -35.72109375 28.97265625 -39.12109375 28.97265625 C-38.96484375 26.68359375 -38.96484375 26.68359375 -38.12109375 23.97265625 C-35.71484375 22.19921875 -35.71484375 22.19921875 -32.62109375 20.59765625 C-28.76429655 18.48776131 -25.17702715 16.41137643 -21.74609375 13.66015625 C-17.84607336 10.54441784 -13.92941474 7.46455727 -9.93359375 4.47265625 C-9.35109863 4.01463623 -8.76860352 3.55661621 -8.16845703 3.0847168 C-5.31618323 0.97575546 -3.58832891 -0.03143717 0 0 Z M-11.12109375 23.97265625 C-13.70657163 28.09218434 -13.96244651 32.24311017 -13.12109375 36.97265625 C-11.68964185 39.42158616 -10.17829231 40.96688765 -8.12109375 42.97265625 C-7.13109375 42.64265625 -6.14109375 42.31265625 -5.12109375 41.97265625 C-6.11109375 41.64265625 -7.10109375 41.31265625 -8.12109375 40.97265625 C-9.93339867 37.44873003 -10.95960697 33.92908243 -11.12109375 29.97265625 C-9.10237529 26.08475403 -7.36838522 23.34677996 -3.12109375 21.97265625 C-1.12998974 21.58975163 0.86991138 21.2466101 2.87890625 20.97265625 C2.87890625 20.64265625 2.87890625 20.31265625 2.87890625 19.97265625 C-3.24389118 19.47283605 -6.22863133 20.51915336 -11.12109375 23.97265625 Z M2.87890625 20.97265625 C3.66265625 21.44703125 4.44640625 21.92140625 5.25390625 22.41015625 C8.85469209 25.92520909 9.0986613 29.15549175 9.87890625 33.97265625 C10.19930046 35.30915782 10.52854402 36.64369606 10.87890625 37.97265625 C13.1556734 34.55750553 13.04716002 32.94924692 12.41796875 28.9765625 C11.58489065 25.87968522 10.22367824 24.12203058 7.87890625 21.97265625 C5.24429677 21.09322221 5.24429677 21.09322221 2.87890625 20.97265625 Z M8.87890625 37.97265625 C8.21890625 38.61203125 7.55890625 39.25140625 6.87890625 39.91015625 C3.02199713 42.56178127 0.50050592 42.65932746 -4.12109375 42.97265625 C-4.12109375 43.30265625 -4.12109375 43.63265625 -4.12109375 43.97265625 C1.38257417 44.29640142 5.31562831 44.50551659 9.87890625 40.97265625 C9.54890625 39.98265625 9.21890625 38.99265625 8.87890625 37.97265625 Z M-16.04296875 44.1875 C-16.94789063 45.04021484 -16.94789063 45.04021484 -17.87109375 45.91015625 C-18.4846875 46.47605469 -19.09828125 47.04195312 -19.73046875 47.625 C-20.189375 48.06972656 -20.64828125 48.51445312 -21.12109375 48.97265625 C-20.79109375 50.29265625 -20.46109375 51.61265625 -20.12109375 52.97265625 C-14.82608462 51.61108247 -12.88363842 48.3692167 -10.12109375 43.97265625 C-12.71902809 42.96681884 -13.62514948 42.65916302 -16.04296875 44.1875 Z " fill="#F25023" transform="translate(721.12109375,92.02734375)"/>
<path d="M0 0 C3.96 0 7.92 0 12 0 C13.41785021 2.66604314 14.83430492 5.33281272 16.25 8 C16.64574219 8.74378906 17.04148437 9.48757812 17.44921875 10.25390625 C20.03843053 15.13520715 22.54692548 20.04884041 25 25 C28.22367839 21.43092749 30.01127323 17.92375991 31.8515625 13.55859375 C33.9482709 8.88735564 36.50991048 4.47084255 39 0 C42.96 0 46.92 0 51 0 C51 16.5 51 33 51 50 C47.7 50 44.4 50 41 50 C40 49 40 49 39.88647461 46.31616211 C39.89171143 45.14835205 39.89694824 43.98054199 39.90234375 42.77734375 C39.90556641 41.51728516 39.90878906 40.25722656 39.91210938 38.95898438 C39.92046597 37.61848891 39.92893093 36.27799412 39.9375 34.9375 C39.9425134 33.59310058 39.94707658 32.2486994 39.95117188 30.90429688 C39.96300512 27.60282059 39.97949029 24.30143197 40 21 C36.19223168 27.88534606 32.58007685 34.54644464 30 42 C29 43 29 43 25.4375 43.0625 C24.303125 43.041875 23.16875 43.02125 22 43 C20.32666842 39.87852455 18.66248284 36.75226502 17 33.625 C16.52304687 32.73554688 16.04609375 31.84609375 15.5546875 30.9296875 C14.87792969 29.65351563 14.87792969 29.65351563 14.1875 28.3515625 C13.76855469 27.56604004 13.34960938 26.78051758 12.91796875 25.97119141 C12 24 12 24 12 22 C11.34 22 10.68 22 10 22 C10.05329468 23.16571533 10.05329468 23.16571533 10.10766602 24.35498047 C10.26485529 27.86142966 10.41378153 31.36818176 10.5625 34.875 C10.61857422 36.09832031 10.67464844 37.32164062 10.73242188 38.58203125 C10.78076172 39.74863281 10.82910156 40.91523438 10.87890625 42.1171875 C10.9260376 43.19597168 10.97316895 44.27475586 11.02172852 45.38623047 C11 48 11 48 10 50 C6.7 50 3.4 50 0 50 C-0.78745056 46.52215852 -1.12831632 43.30931816 -1.1328125 39.74609375 C-1.13474609 38.73538818 -1.13667969 37.72468262 -1.13867188 36.68334961 C-1.13416016 35.61221924 -1.12964844 34.54108887 -1.125 33.4375 C-1.12306641 32.33736572 -1.12113281 31.23723145 -1.11914062 30.10375977 C-1.06692675 20.04896236 -0.62779955 10.03358212 0 0 Z " fill="#071F3F" transform="translate(291,103)"/>
<path d="M0 0 C3.23854112 0.07626078 4.61228438 0.42126894 7.10546875 2.53515625 C9.03943832 4.88277035 10.85085665 7.2815061 12.59863281 9.77050781 C14.8257563 12.91641674 17.14482734 15.9936078 19.44873047 19.08349609 C22.31841756 22.95813713 25.155861 26.85656701 28 30.75 C28.33 20.85 28.66 10.95 29 0.75 C32.63 0.75 36.26 0.75 40 0.75 C40 17.25 40 33.75 40 50.75 C29 50.75 29 50.75 25.65234375 47.70703125 C24.71072619 46.35024898 23.80684822 44.96668497 22.9375 43.5625 C21.94263478 42.09942428 20.94651944 40.63719792 19.94921875 39.17578125 C19.46243652 38.43666504 18.9756543 37.69754883 18.47412109 36.93603516 C16.21684498 33.58862702 13.73946705 30.42607344 11.25 27.25 C9.14625 24.5275 9.14625 24.5275 7 21.75 C6.67 31.32 6.34 40.89 6 50.75 C2.7 50.75 -0.6 50.75 -4 50.75 C-5.60051664 49.14948336 -5.12731472 47.46153878 -5.12939453 45.24609375 C-5.13254669 44.28840088 -5.13569885 43.33070801 -5.13894653 42.34399414 C-5.1369223 41.30235107 -5.13489807 40.26070801 -5.1328125 39.1875 C-5.13376923 38.12587646 -5.13472595 37.06425293 -5.13571167 35.97045898 C-5.13639364 33.72086528 -5.13453819 31.47126963 -5.13037109 29.22167969 C-5.1250231 25.76492929 -5.13031554 22.30830883 -5.13671875 18.8515625 C-5.13605797 16.67187471 -5.13477682 14.492187 -5.1328125 12.3125 C-5.13483673 11.27085693 -5.13686096 10.22921387 -5.13894653 9.15600586 C-5.13579437 8.19831299 -5.13264221 7.24062012 -5.12939453 6.25390625 C-5.12859894 5.40642822 -5.12780334 4.5589502 -5.12698364 3.68579102 C-4.9033833 0.2771352 -3.08075995 0.36370083 0 0 Z " fill="#071E40" transform="translate(467,102.25)"/>
<path d="M0 0 C6.6825 -0.12375 6.6825 -0.12375 13.5 -0.25 C15.58344727 -0.30462402 15.58344727 -0.30462402 17.70898438 -0.36035156 C26.32545702 -0.43741753 31.65856487 0.43779681 38.4375 6 C41.15729661 11.22200949 41.77700811 17.42066756 40.5234375 23.1953125 C39.38380035 26.08823757 37.97258116 28.02665721 35.75 30.1875 C34.88375 31.0846875 34.88375 31.0846875 34 32 C34.39950597 35.13710428 35.68678257 37.2878864 37.4375 39.875 C39.55735067 43.14667704 40.95913875 46.21505001 42 50 C37.75922627 50.82695088 34.20204982 51.12225477 30 50 C26.53278473 46.20182327 22 40.35547777 22 35 C18.7 35 15.4 35 12 35 C12.01160156 35.99902344 12.02320313 36.99804688 12.03515625 38.02734375 C12.04417969 39.31769531 12.05320312 40.60804688 12.0625 41.9375 C12.07410156 43.22527344 12.08570313 44.51304687 12.09765625 45.83984375 C12 49 12 49 11 50 C7.37 50 3.74 50 0 50 C0 33.5 0 17 0 0 Z M12 10 C10.90348177 13.41139003 11.05784527 16.20655581 11.4375 19.75 C11.53933594 20.73484375 11.64117188 21.7196875 11.74609375 22.734375 C11.82988281 23.48203125 11.91367187 24.2296875 12 25 C14.27024968 25.08097324 16.54132075 25.13917704 18.8125 25.1875 C20.70935547 25.23970703 20.70935547 25.23970703 22.64453125 25.29296875 C25.91832186 25.28542099 25.91832186 25.28542099 27.88671875 23.69921875 C29.79687183 20.78372194 30 18.44822315 30 15 C28.53331024 11.77741287 28.53331024 11.77741287 25 10 C20.63458258 9.58826776 16.37068228 9.71203411 12 10 Z " fill="#061E40" transform="translate(617,103)"/>
<path d="M0 0 C6.1875 -0.0928125 6.1875 -0.0928125 12.5 -0.1875 C13.78455078 -0.21481201 15.06910156 -0.24212402 16.39257812 -0.27026367 C26.15649788 -0.34089564 32.96791212 1.14444863 40.234375 7.99609375 C45.47935484 13.9489138 46.6979821 20.27242734 46.37109375 28.078125 C45.32953549 36.27902579 41.58745888 40.97164785 35.51171875 46.37109375 C28.40348003 50.98094685 20.74581624 50.24017902 12.5625 50.125 C8.416875 50.08375 4.27125 50.0425 0 50 C0 33.5 0 17 0 0 Z M11 11 C10.91224395 13.14558827 10.89304781 15.29404421 10.90234375 17.44140625 C10.90556641 18.74658203 10.90878906 20.05175781 10.91210938 21.39648438 C10.92046599 22.7851569 10.92893095 24.17382877 10.9375 25.5625 C10.94251334 26.95507656 10.94707653 28.34765481 10.95117188 29.74023438 C10.96300566 33.1601987 10.9794912 36.58007844 11 40 C13.25630854 40.0473312 15.51290183 40.08122996 17.76953125 40.109375 C19.65442261 40.1398291 19.65442261 40.1398291 21.57739258 40.17089844 C26.99665157 39.90030272 28.95185587 38.1721238 32.61328125 34.2890625 C35.51947063 29.49180341 34.669006 23.38956232 34 18 C32.44386434 14.42665145 30.22947902 12.60738365 26.71484375 10.87109375 C23.59204552 9.86910237 21.02353932 9.76815402 17.75 9.8125 C16.69296875 9.81894531 15.6359375 9.82539062 14.546875 9.83203125 C12.06561282 9.71470694 12.06561282 9.71470694 11 11 Z " fill="#071E3F" transform="translate(518,103)"/>
<path d="M0 0 C5.88715855 3.60051542 11.0484199 8.35171174 13.12109375 15.078125 C14.66896128 23.35168243 14.4449485 30.90136337 10.16796875 38.28125 C5.29000771 44.83267213 -1.45446151 48.16361088 -9.4375 49.4375 C-16.79175828 49.81552262 -23.48599916 47.78825234 -29.4375 43.4375 C-35.45987286 36.56900864 -37.99807726 29.64322884 -37.80859375 20.5703125 C-36.85283479 12.50169475 -32.63576706 6.97031128 -26.59765625 1.8125 C-19.24471949 -2.86785034 -7.9634675 -3.63109184 0 0 Z M-23.1875 12.75 C-26.56747772 17.31296992 -26.7604974 21.84319234 -25.9765625 27.2578125 C-24.89418469 31.63438365 -22.61281105 34.43009053 -19.25 37.3125 C-15.23001474 38.9204941 -11.70696703 39.10130406 -7.4375 38.4375 C-2.33220824 36.02934351 0.67261694 32.70141158 2.5625 27.4375 C3.47341741 22.145991 2.51596569 17.91862035 -0.4375 13.4375 C-4.1174016 10.03359102 -6.70278618 8.5684218 -11.75 8.1875 C-16.44345467 8.50570032 -19.45560933 9.95108199 -23.1875 12.75 Z " fill="#061E3F" transform="translate(269.4375,104.5625)"/>
<path d="M0 0 C3.63 0 7.26 0 11 0 C12 1 12 1 12.11352539 2.85766602 C12.10828857 3.64842529 12.10305176 4.43918457 12.09765625 5.25390625 C12.09515869 6.0229126 12.09266113 6.79191895 12.09008789 7.58422852 C12.08098389 8.56705811 12.07187988 9.5498877 12.0625 10.5625 C12.0315625 15.2340625 12.0315625 15.2340625 12 20 C18.6 20 25.2 20 32 20 C32 13.4 32 6.8 32 0 C35.63 0 39.26 0 43 0 C43 16.5 43 33 43 50 C39.37 50 35.74 50 32 50 C32 43.4 32 36.8 32 30 C25.4 30 18.8 30 12 30 C12 36.6 12 43.2 12 50 C8.04 50 4.08 50 0 50 C0 33.5 0 17 0 0 Z " fill="#051D40" transform="translate(181,103)"/>
<path d="M0 0 C11.88 0 23.76 0 36 0 C36 3.3 36 6.6 36 10 C27.75 10 19.5 10 11 10 C11 13.3 11 16.6 11 20 C18.26 20 25.52 20 33 20 C33 23.3 33 26.6 33 30 C25.74 30 18.48 30 11 30 C11 33.3 11 36.6 11 40 C19.58 40 28.16 40 37 40 C37 43.3 37 46.6 37 50 C24.79 50 12.58 50 0 50 C0 33.5 0 17 0 0 Z " fill="#081F3F" transform="translate(572,103)"/>
<path d="M0 0 C11.88 0 23.76 0 36 0 C36 3.3 36 6.6 36 10 C27.75 10 19.5 10 11 10 C11 13.3 11 16.6 11 20 C18.26 20 25.52 20 33 20 C33 23.3 33 26.6 33 30 C25.74 30 18.48 30 11 30 C11 33.3 11 36.6 11 40 C11.7520874 39.99476318 12.5041748 39.98952637 13.27905273 39.98413086 C16.66519342 39.96342773 20.05132084 39.95036123 23.4375 39.9375 C24.62150391 39.92912109 25.80550781 39.92074219 27.02539062 39.91210938 C28.15009766 39.90888672 29.27480469 39.90566406 30.43359375 39.90234375 C31.47572021 39.89710693 32.51784668 39.89187012 33.59155273 39.88647461 C36 40 36 40 37 41 C37 43.97 37 46.94 37 50 C24.79 50 12.58 50 0 50 C0 33.5 0 17 0 0 Z " fill="#061F3F" transform="translate(353,103)"/>
<path d="M0 0 C11.55 0 23.1 0 35 0 C35 3.3 35 6.6 35 10 C27.08 10 19.16 10 11 10 C11 13.63 11 17.26 11 21 C13.25650391 20.98259766 13.25650391 20.98259766 15.55859375 20.96484375 C17.51822793 20.95546751 19.47786345 20.94636713 21.4375 20.9375 C22.92733398 20.92493164 22.92733398 20.92493164 24.44726562 20.91210938 C25.39150391 20.90888672 26.33574219 20.90566406 27.30859375 20.90234375 C28.62041626 20.89448853 28.62041626 20.89448853 29.95874023 20.88647461 C32 21 32 21 33 22 C33 24.97 33 27.94 33 31 C25.74 31 18.48 31 11 31 C11 37.27 11 43.54 11 50 C7.37 50 3.74 50 0 50 C0 33.5 0 17 0 0 Z " fill="#071F3F" transform="translate(398,103)"/>
<path d="M0 0 C3.63 0 7.26 0 11 0 C11 16.5 11 33 11 50 C7.37 50 3.74 50 0 50 C0 33.5 0 17 0 0 Z " fill="#091F3E" transform="translate(440,103)"/>
<path d="M0 0 C1.79887229 0.90244429 3.58890815 1.82251786 5.375 2.75 C6.87160156 3.51570313 6.87160156 3.51570313 8.3984375 4.296875 C11.06579125 6.04307055 11.93652905 7.05303231 13 10 C12 11 12 11 9.93359375 11.09765625 C9.10988281 11.08605469 8.28617188 11.07445313 7.4375 11.0625 C6.61121094 11.05347656 5.78492188 11.04445313 4.93359375 11.03515625 C4.29550781 11.02355469 3.65742187 11.01195313 3 11 C3.01571045 11.9286084 3.0314209 12.8572168 3.04760742 13.81396484 C3.09868853 17.25428829 3.13632607 20.69420976 3.16479492 24.13476562 C3.179896 25.62473909 3.20037858 27.11466801 3.22631836 28.60449219 C3.26264584 30.7442523 3.27971221 32.88342566 3.29296875 35.0234375 C3.3086792 36.31169434 3.32438965 37.59995117 3.34057617 38.92724609 C3.22818604 39.94125488 3.1157959 40.95526367 3 42 C-0.39897673 44.26598448 -1.56319173 44.23742654 -5.54296875 44.1953125 C-7.15268555 44.18564453 -7.15268555 44.18564453 -8.79492188 44.17578125 C-9.91447266 44.15902344 -11.03402344 44.14226562 -12.1875 44.125 C-13.31865234 44.11597656 -14.44980469 44.10695312 -15.61523438 44.09765625 C-18.41036828 44.07406862 -21.20507845 44.041153 -24 44 C-24.33 43.34 -24.66 42.68 -25 42 C-12.625 41.505 -12.625 41.505 0 41 C0.33 30.44 0.66 19.88 1 9 C1.66 8.67 2.32 8.34 3 8 C2.65555119 5.52733235 2.65555119 5.52733235 2 3 C1.34 2.67 0.68 2.34 0 2 C0 1.34 0 0.68 0 0 Z " fill="#E06041" transform="translate(746,110)"/>
<path d="M0 0 C3.63 0 7.26 0 11 0 C12 1 12 1 12.11352539 2.85766602 C12.10828857 3.64842529 12.10305176 4.43918457 12.09765625 5.25390625 C12.09443359 6.10791016 12.09121094 6.96191406 12.08789062 7.84179688 C12.07951172 8.73962891 12.07113281 9.63746094 12.0625 10.5625 C12.05798828 11.46419922 12.05347656 12.36589844 12.04882812 13.29492188 C12.03700244 15.52997589 12.01906638 17.76499602 12 20 C17.94 20 23.88 20 30 20 C30 20.33 30 20.66 30 21 C23.73 21 17.46 21 11 21 C9.8517315 18.703463 9.88438825 17.41686833 9.90234375 14.8671875 C9.90556641 14.06152344 9.90878906 13.25585938 9.91210938 12.42578125 C9.92048828 11.58402344 9.92886719 10.74226563 9.9375 9.875 C9.94201172 9.02550781 9.94652344 8.17601563 9.95117188 7.30078125 C9.96297126 5.20049091 9.98090694 3.1002367 10 1 C7.69 1.66 5.38 2.32 3 3 C3.020625 3.804375 3.04125 4.60875 3.0625 5.4375 C3 8 3 8 2 9 C1.83970312 11.95529504 1.74042672 14.88982457 1.68359375 17.84765625 C1.66281265 18.7340831 1.64203156 19.62050995 1.62062073 20.53379822 C1.555026 23.376617 1.49619448 26.21953117 1.4375 29.0625 C1.3943242 30.98503606 1.35071022 32.90756234 1.30664062 34.83007812 C1.19933457 39.55328668 1.09809549 44.27659153 1 49 C3.97 49 6.94 49 10 49 C10.495 40.09 10.495 40.09 11 31 C11.33 31 11.66 31 12 31 C12 37.27 12 43.54 12 50 C8.04 50 4.08 50 0 50 C0 33.5 0 17 0 0 Z " fill="#122238" transform="translate(181,103)"/>
<path d="M0 0 C0.33 0.99 0.66 1.98 1 3 C4.3 3 7.6 3 11 3 C11.33 9.93 11.66 16.86 12 24 C13.32 24 14.64 24 16 24 C15.938125 22.1128125 15.938125 22.1128125 15.875 20.1875 C15.7609626 16.70935927 15.94074319 16.08888522 18 13 C21.125 12.3125 21.125 12.3125 24 12 C24 12.99 24 13.98 24 15 C21.5 16.5 21.5 16.5 19 18 C19 18.99 19 19.98 19 21 C19.99 21 20.98 21 22 21 C21.54625 21.391875 21.0925 21.78375 20.625 22.1875 C18.72357081 24.30832487 17.93795972 26.33042235 17 29 C16.01 29 15.02 29 14 29 C14.33 30.65 14.66 32.3 15 34 C17.475 33.505 17.475 33.505 20 33 C20 33.66 20 34.32 20 35 C21.32 35.33 22.64 35.66 24 36 C21.52224905 37.23887548 19.76346293 37.16741669 17 37.1875 C16.113125 37.20167969 15.22625 37.21585938 14.3125 37.23046875 C12 37 12 37 10 35 C9.77294922 31.92724609 9.77294922 31.92724609 9.8046875 28.0234375 C9.8075174 27.33819 9.81034729 26.6529425 9.81326294 25.94692993 C9.82446719 23.75610973 9.84957141 21.56569684 9.875 19.375 C9.88502952 17.8906309 9.89415542 16.4062554 9.90234375 14.921875 C9.92440706 11.28111739 9.95893824 7.64059844 10 4 C6.7 4 3.4 4 0 4 C0 2.68 0 1.36 0 0 Z " fill="#E45932" transform="translate(682,117)"/>
<path d="M0 0 C3.56315478 3.56315478 3.74509256 5.07178954 4 10 C2.96546283 14.04409984 1.07515089 16.2323642 -2 19 C0.46800047 17.84826645 2.04783565 16.95216435 4 15 C4 16.32 4 17.64 4 19 C-1.36809309 21.74115392 -5.95715488 22.86007223 -12 22 C-14.26953125 20.98046875 -14.26953125 20.98046875 -16 20 C-16.268125 20.556875 -16.53625 21.11375 -16.8125 21.6875 C-17.204375 22.450625 -17.59625 23.21375 -18 24 C-18.433125 24.845625 -18.86625 25.69125 -19.3125 26.5625 C-21.22464808 29.32449168 -23.03878024 30.47937364 -26 32 C-26.66 30.68 -27.32 29.36 -28 28 C-27.278125 27.95875 -26.55625 27.9175 -25.8125 27.875 C-21.76725183 26.61647835 -20.50518743 24.36410883 -18 21 C-19.65 20.67 -21.3 20.34 -23 20 C-22.67 19.34 -22.34 18.68 -22 18 C-20.68 18 -19.36 18 -18 18 C-17.67 17.34 -17.34 16.68 -17 16 C-16.34 16.33 -15.68 16.66 -15 17 C-15.66 15.35 -16.32 13.7 -17 12 C-16.01 12.66 -15.02 13.32 -14 14 C-14 14.66 -14 15.32 -14 16 C-12.35 15.67 -10.7 15.34 -9 15 C-9 15.66 -9 16.32 -9 17 C-6.36 16.34 -3.72 15.68 -1 15 C-0.67 13.35 -0.34 11.7 0 10 C-0.66 9.67 -1.32 9.34 -2 9 C-1.34 6.03 -0.68 3.06 0 0 Z " fill="#E15E3D" transform="translate(728,116)"/>
<path d="M0 0 C0.99 0.495 0.99 0.495 2 1 C1.67 16.84 1.34 32.68 1 49 C12.22 49 23.44 49 35 49 C35 46.69 35 44.38 35 42 C33.91730835 42.00785522 33.91730835 42.00785522 32.81274414 42.01586914 C29.56267151 42.03657358 26.31261272 42.04963918 23.0625 42.0625 C21.35803711 42.07506836 21.35803711 42.07506836 19.61914062 42.08789062 C18.53955078 42.09111328 17.45996094 42.09433594 16.34765625 42.09765625 C14.84730835 42.10551147 14.84730835 42.10551147 13.31665039 42.11352539 C11 42 11 42 10 41 C9.92794489 39.31391034 9.91613932 37.62499341 9.9375 35.9375 C9.94652344 35.01839844 9.95554687 34.09929687 9.96484375 33.15234375 C9.97644531 32.44207031 9.98804688 31.73179687 10 31 C10.33 31 10.66 31 11 31 C11 33.97 11 36.94 11 40 C11.7520874 39.99476318 12.5041748 39.98952637 13.27905273 39.98413086 C16.66519342 39.96342773 20.05132084 39.95036123 23.4375 39.9375 C24.62150391 39.92912109 25.80550781 39.92074219 27.02539062 39.91210938 C28.15009766 39.90888672 29.27480469 39.90566406 30.43359375 39.90234375 C31.47572021 39.89710693 32.51784668 39.89187012 33.59155273 39.88647461 C36 40 36 40 37 41 C37 43.97 37 46.94 37 50 C24.79 50 12.58 50 0 50 C0 33.5 0 17 0 0 Z " fill="#14253C" transform="translate(353,103)"/>
<path d="M0 0 C1.23556641 0.01740234 1.23556641 0.01740234 2.49609375 0.03515625 C3.32238281 0.04417969 4.14867187 0.05320312 5 0.0625 C5.63808594 0.07410156 6.27617187 0.08570312 6.93359375 0.09765625 C6.93359375 1.08765625 6.93359375 2.07765625 6.93359375 3.09765625 C4.62359375 3.09765625 2.31359375 3.09765625 -0.06640625 3.09765625 C-0.39640625 18.27765625 -0.72640625 33.45765625 -1.06640625 49.09765625 C1.57359375 49.09765625 4.21359375 49.09765625 6.93359375 49.09765625 C6.93359375 41.17765625 6.93359375 33.25765625 6.93359375 25.09765625 C7.26359375 25.09765625 7.59359375 25.09765625 7.93359375 25.09765625 C7.93359375 33.34765625 7.93359375 41.59765625 7.93359375 50.09765625 C4.63359375 50.09765625 1.33359375 50.09765625 -2.06640625 50.09765625 C-3.66692289 48.49713961 -3.19372097 46.80919503 -3.19580078 44.59375 C-3.19895294 43.63605713 -3.2021051 42.67836426 -3.20535278 41.69165039 C-3.20332855 40.65000732 -3.20130432 39.60836426 -3.19921875 38.53515625 C-3.20017548 37.47353271 -3.2011322 36.41190918 -3.20211792 35.31811523 C-3.20279989 33.06852153 -3.20094444 30.81892588 -3.19677734 28.56933594 C-3.19142935 25.11258554 -3.19672179 21.65596508 -3.203125 18.19921875 C-3.20246422 16.01953096 -3.20118307 13.83984325 -3.19921875 11.66015625 C-3.20124298 10.61851318 -3.20326721 9.57687012 -3.20535278 8.50366211 C-3.20220062 7.54596924 -3.19904846 6.58827637 -3.19580078 5.6015625 C-3.19500519 4.75408447 -3.19420959 3.90660645 -3.19338989 3.03344727 C-3.0154016 0.32012032 -2.71661128 0.12838428 0 0 Z " fill="#10203E" transform="translate(465.06640625,102.90234375)"/>
<path d="M0 0 C6.6825 -0.12375 6.6825 -0.12375 13.5 -0.25 C15.58344727 -0.30462402 15.58344727 -0.30462402 17.70898438 -0.36035156 C24.92128845 -0.42485861 29.99515798 -0.16840975 36 4 C37.20117188 6.13964844 37.20117188 6.13964844 38 8 C33.125 5.25 33.125 5.25 32 3 C26.64383745 1.90219645 21.32799841 1.81702156 15.875 1.8125 C15.08996094 1.80025391 14.30492187 1.78800781 13.49609375 1.77539062 C12.73167969 1.77345703 11.96726562 1.77152344 11.1796875 1.76953125 C10.49632324 1.76542236 9.81295898 1.76131348 9.10888672 1.75708008 C6.50545747 2.05696571 4.38844036 2.94851323 2 4 C1.97532668 9.80240568 1.95715276 15.60478098 1.94506836 21.40722656 C1.9400319 23.38216687 1.93320249 25.35710343 1.92456055 27.33203125 C1.91246492 30.16667605 1.9067649 33.00127166 1.90234375 35.8359375 C1.89460182 37.16569107 1.89460182 37.16569107 1.88670349 38.52230835 C1.74597908 42.89771239 1.74597908 42.89771239 3 47 C6.02934491 47.65772428 6.02934491 47.65772428 9 48 C9.66 46.35 10.32 44.7 11 43 C11.33 43 11.66 43 12 43 C12.04254356 44.99954746 12.04080783 47.00041636 12 49 C11.505 49.495 11.505 49.495 11 50 C7.37 50 3.74 50 0 50 C0 33.5 0 17 0 0 Z " fill="#112036" transform="translate(617,103)"/>
<path d="M0 0 C0.33 0 0.66 0 1 0 C1 3.96 1 7.92 1 12 C3.25650391 11.98259766 3.25650391 11.98259766 5.55859375 11.96484375 C7.51822793 11.95546751 9.47786345 11.94636713 11.4375 11.9375 C12.92733398 11.92493164 12.92733398 11.92493164 14.44726562 11.91210938 C15.39150391 11.90888672 16.33574219 11.90566406 17.30859375 11.90234375 C18.18314209 11.89710693 19.05769043 11.89187012 19.95874023 11.88647461 C22 12 22 12 23 13 C23 15.97 23 18.94 23 22 C15.41 22.33 7.82 22.66 0 23 C0 22.34 0 21.68 0 21 C6.03503763 19.49124059 11.89738369 20.35813906 18 21 C17.34 19.35 16.68 17.7 16 16 C17.32 15.67 18.64 15.34 20 15 C20.33 15.66 20.66 16.32 21 17 C21.33 16.01 21.66 15.02 22 14 C21.16021606 14.05329468 21.16021606 14.05329468 20.3034668 14.10766602 C17.76514558 14.26534043 15.22637477 14.41401707 12.6875 14.5625 C11.36588867 14.64661133 11.36588867 14.64661133 10.01757812 14.73242188 C8.74624023 14.80493164 8.74624023 14.80493164 7.44921875 14.87890625 C6.27879028 14.94960327 6.27879028 14.94960327 5.0847168 15.02172852 C3 15 3 15 0 14 C0 9.38 0 4.76 0 0 Z " fill="#10243F" transform="translate(408,112)"/>
<path d="M0 0 C3.63 0 7.26 0 11 0 C11 16.5 11 33 11 50 C7.37 50 3.74 50 0 50 C0 48.35 0 46.7 0 45 C0.99 44.505 0.99 44.505 2 44 C2 44.99 2 45.98 2 47 C4.31 47 6.62 47 9 47 C9.33 31.82 9.66 16.64 10 1 C7.03 1 4.06 1 1 1 C1 6.94 1 12.88 1 19 C0.67 19 0.34 19 0 19 C0 12.73 0 6.46 0 0 Z " fill="#0F1F35" transform="translate(213,103)"/>
<path d="M0 0 C1.875 1.5 1.875 1.5 3 3 C2.38125 3.226875 1.7625 3.45375 1.125 3.6875 C-1.61410209 5.37929835 -2.05024472 6.99244161 -3 10 C-4.32 9.67 -5.64 9.34 -7 9 C-7 8.34 -7 7.68 -7 7 C-9.31 7.66 -11.62 8.32 -14 9 C-13.02552263 5.49188148 -12.07842969 4.06595224 -9.25 1.6875 C-5.72978336 -0.14030479 -3.89743845 -0.6062682 0 0 Z " fill="#EC542D" transform="translate(724,113)"/>
<path d="M0 0 C1.32 0 2.64 0 4 0 C4 3.3 4 6.6 4 10 C-3.59 10 -11.18 10 -19 10 C-19 9.34 -19 8.68 -19 8 C-12.73 7.67 -6.46 7.34 0 7 C0.99 5.02 1.98 3.04 3 1 C2.01 0.67 1.02 0.34 0 0 Z " fill="#172943" transform="translate(601,123)"/>
<path d="M0 0 C2.64 0 5.28 0 8 0 C8.70074844 3.153368 9 5.72724974 9 9 C8.01 9.33 7.02 9.66 6 10 C6 8.68 6 7.36 6 6 C5.34 6 4.68 6 4 6 C4 5.34 4 4.68 4 4 C2.35 4.33 0.7 4.66 -1 5 C-0.67 3.35 -0.34 1.7 0 0 Z " fill="#E85A36" transform="translate(736,96)"/>
<path d="M0 0 C11.02563965 0.0602494 11.02563965 0.0602494 14.609375 2.265625 C16.5127784 7.37020683 16.83444713 11.86389397 16.609375 17.265625 C15.949375 17.595625 15.289375 17.925625 14.609375 18.265625 C14.7021875 16.71875 14.7021875 16.71875 14.796875 15.140625 C14.59142368 10.89463102 13.99428692 8.76349582 11.609375 5.265625 C6.58107421 1.58638052 1.5726829 1.94742478 -4.390625 2.265625 C-2.390625 0.265625 -2.390625 0.265625 0 0 Z " fill="#DF603F" transform="translate(718.390625,110.734375)"/>
<path d="M0 0 C2.64623013 0.94508219 3.90889934 1.74470471 5.625 3.9375 C3.60677083 3.61197917 1.58854167 3.28645833 -0.4296875 2.9609375 C-1.07164062 2.95320313 -1.71359375 2.94546875 -2.375 2.9375 C-3.035 3.5975 -3.695 4.2575 -4.375 4.9375 C-5.695 4.9375 -7.015 4.9375 -8.375 4.9375 C-8.375 5.5975 -8.375 6.2575 -8.375 6.9375 C-10.0546875 8.26171875 -10.0546875 8.26171875 -12.25 9.625 C-13.32894531 10.31142578 -13.32894531 10.31142578 -14.4296875 11.01171875 C-15.39261719 11.46998047 -15.39261719 11.46998047 -16.375 11.9375 C-17.035 11.6075 -17.695 11.2775 -18.375 10.9375 C-16.01501947 9.06092515 -13.64017993 7.21239487 -11.25 5.375 C-10.58484375 4.84197266 -9.9196875 4.30894531 -9.234375 3.75976562 C-4.18406119 -0.07748261 -4.18406119 -0.07748261 0 0 Z " fill="#DC5E43" transform="translate(721.375,92.0625)"/>
<path d="M0 0 C1.485 0.99 1.485 0.99 3 2 C3 2.66 3 3.32 3 4 C4.65 3.67 6.3 3.34 8 3 C8 3.66 8 4.32 8 5 C9.27875 4.690625 10.5575 4.38125 11.875 4.0625 C12.59429688 3.88847656 13.31359375 3.71445313 14.0546875 3.53515625 C16.0585657 3.05153008 16.0585657 3.05153008 18 2 C17.30078125 3.90234375 17.30078125 3.90234375 16 6 C12.75924388 7.47411384 9.55448566 8.02235526 6 8 C2.56854861 5.54896329 1.32667306 3.98001917 0 0 Z " fill="#DC634C" transform="translate(711,128)"/>
<path d="M0 0 C1.48754006 0.73325207 2.96486192 1.48726078 4.4375 2.25 C5.67306641 2.87648438 5.67306641 2.87648438 6.93359375 3.515625 C9 5 9 5 9.78515625 7.171875 C9.85605469 7.77515625 9.92695312 8.3784375 10 9 C7.69 9 5.38 9 3 9 C2 6 2 6 2 3 C1.34 2.67 0.68 2.34 0 2 C0 1.34 0 0.68 0 0 Z " fill="#F65729" transform="translate(746,110)"/>
<path d="M0 0 C0.66 0 1.32 0 2 0 C2.33 2.97 2.66 5.94 3 9 C2.01 9.495 2.01 9.495 1 10 C0.67 8.35 0.34 6.7 0 5 C-0.99 6.98 -1.98 8.96 -3 11 C-3.33 11 -3.66 11 -4 11 C-4 8.03 -4 5.06 -4 2 C-2.68 2 -1.36 2 0 2 C0 1.34 0 0.68 0 0 Z " fill="#132444" transform="translate(331,119)"/>
<path d="M0 0 C0.66 0.33 1.32 0.66 2 1 C1.360625 1.61875 0.72125 2.2375 0.0625 2.875 C-2.82136241 5.84625218 -3.13823018 7.40891064 -3.125 11.4375 C-3.12757813 12.21996094 -3.13015625 13.00242187 -3.1328125 13.80859375 C-3.08382548 16.17895347 -3.08382548 16.17895347 -2 19 C-2.99 19 -3.98 19 -5 19 C-5.33 14.05 -5.66 9.1 -6 4 C-4.02 2.68 -2.04 1.36 0 0 Z " fill="#E55C3C" transform="translate(712,113)"/>
<path d="M0 0 C1.18851562 0.00902344 2.37703125 0.01804687 3.6015625 0.02734375 C4.51679688 0.03894531 5.43203125 0.05054687 6.375 0.0625 C6.045 1.0525 5.715 2.0425 5.375 3.0625 C3.60450311 3.11660687 1.83353151 3.15534119 0.0625 3.1875 C-1.41669922 3.22230469 -1.41669922 3.22230469 -2.92578125 3.2578125 C-5.625 3.0625 -5.625 3.0625 -8.625 1.0625 C-5.74084117 -0.37957941 -3.20778472 -0.03144887 0 0 Z " fill="#0B1E38" transform="translate(257.625,102.9375)"/>
<path d="M0 0 C0.66 0 1.32 0 2 0 C2.495 1.134375 2.99 2.26875 3.5 3.4375 C4.82541249 5.8194007 5.430125 6.8085916 8.046875 7.6875 C10.50160806 8.00182131 10.50160806 8.00182131 14 8 C13.67 7.01 13.34 6.02 13 5 C13.66 4.34 14.32 3.68 15 3 C15.66 4.98 16.32 6.96 17 9 C13.04 9 9.08 9 5 9 C3.35 6.03 1.7 3.06 0 0 Z " fill="#15243B" transform="translate(642,144)"/>
<path d="M0 0 C3.96 0 7.92 0 12 0 C11.67 0.66 11.34 1.32 11 2 C9.700625 1.979375 8.40125 1.95875 7.0625 1.9375 C5.70834367 1.91600546 4.35243917 1.92851801 3 2 C0.94077598 4.05922402 1.58572421 8.21708124 1.4375 11.0625 C1.39431641 11.82111328 1.35113281 12.57972656 1.30664062 13.36132812 C1.20026367 15.24065438 1.09960066 17.12030244 1 19 C0.67 19 0.34 19 0 19 C0 12.73 0 6.46 0 0 Z " fill="#16263D" transform="translate(291,103)"/>
<path d="M0 0 C5.28 0 10.56 0 16 0 C15.67 0.66 15.34 1.32 15 2 C10.71 1.67 6.42 1.34 2 1 C1.67 3.97 1.34 6.94 1 10 C0.67 10 0.34 10 0 10 C-0.12375 9.030625 -0.2475 8.06125 -0.375 7.0625 C-0.58125 6.051875 -0.7875 5.04125 -1 4 C-1.66 3.67 -2.32 3.34 -3 3 C-2.01 2.67 -1.02 2.34 0 2 C0 1.34 0 0.68 0 0 Z " fill="#132438" transform="translate(627,112)"/>
<path d="M0 0 C1.23556641 0.01740234 1.23556641 0.01740234 2.49609375 0.03515625 C3.32238281 0.04417969 4.14867187 0.05320312 5 0.0625 C5.63808594 0.07410156 6.27617187 0.08570312 6.93359375 0.09765625 C6.93359375 1.08765625 6.93359375 2.07765625 6.93359375 3.09765625 C3.96359375 3.09765625 0.99359375 3.09765625 -2.06640625 3.09765625 C-2.06640625 5.40765625 -2.06640625 7.71765625 -2.06640625 10.09765625 C-2.39640625 10.09765625 -2.72640625 10.09765625 -3.06640625 10.09765625 C-3.09329841 8.61858733 -3.11275246 7.13938142 -3.12890625 5.66015625 C-3.14050781 4.83644531 -3.15210938 4.01273437 -3.1640625 3.1640625 C-3.03158405 0.36081842 -2.80324408 0.13247845 0 0 Z " fill="#13233A" transform="translate(465.06640625,102.90234375)"/>
<path d="M0 0 C1.2065625 0.0309375 1.2065625 0.0309375 2.4375 0.0625 C2.1075 0.7225 1.7775 1.3825 1.4375 2.0625 C0.4475 2.0625 -0.5425 2.0625 -1.5625 2.0625 C-1.8925 5.3625 -2.2225 8.6625 -2.5625 12.0625 C-2.8925 12.0625 -3.2225 12.0625 -3.5625 12.0625 C-3.58937279 10.25007948 -3.60883715 8.43754767 -3.625 6.625 C-3.63660156 5.61566406 -3.64820313 4.60632813 -3.66015625 3.56640625 C-3.52706167 0.15386128 -3.42090834 0.08343679 0 0 Z " fill="#0F233E" transform="translate(630.5625,135.9375)"/>
<path d="M0 0 C0.33 0 0.66 0 1 0 C0.55966813 5.19591612 0.11696661 8.66335081 -3 13 C-3.93045933 10.44855176 -4.08564091 9.25993522 -3.22265625 6.640625 C-2.83980469 5.85171875 -2.45695312 5.0628125 -2.0625 4.25 C-1.68222656 3.45078125 -1.30195313 2.6515625 -0.91015625 1.828125 C-0.60980469 1.22484375 -0.30945313 0.6215625 0 0 Z " fill="#112137" transform="translate(282,130)"/>
<path d="M0 0 C0.33 1.32 0.66 2.64 1 4 C0.34 4 -0.32 4 -1 4 C-1 5.65 -1 7.3 -1 9 C-1.99 9.33 -2.98 9.66 -4 10 C-3.43454163 6.04179141 -2.19097652 3.3340947 0 0 Z " fill="#0B1D33" transform="translate(237,112)"/>
<path d="M0 0 C2.97 1.65 5.94 3.3 9 5 C8.34 5.66 7.68 6.32 7 7 C4.13302508 5.71480435 2.02392288 4.42870746 0 2 C0 1.34 0 0.68 0 0 Z " fill="#E36140" transform="translate(746,110)"/>
<path d="M0 0 C0.66 1.32 1.32 2.64 2 4 C-0.60097682 5.30048841 -3.13955062 5.56471422 -6 6 C-2.25 1.125 -2.25 1.125 0 0 Z " fill="#091935" transform="translate(244,106)"/>
<path d="M0 0 C0.99 0.495 0.99 0.495 2 1 C1.01 1.495 1.01 1.495 0 2 C0 1.34 0 0.68 0 0 Z M-7 2 C-4.69 2 -2.38 2 0 2 C-1.32 3.32 -2.64 4.64 -4 6 C-4.99 5.34 -5.98 4.68 -7 4 C-7 3.34 -7 2.68 -7 2 Z " fill="#E75D32" transform="translate(707,142)"/>
<path d="M0 0 C0.66 0.66 1.32 1.32 2 2 C1.8125 4.0625 1.8125 4.0625 1 6 C0.01 6.33 -0.98 6.66 -2 7 C-2.66 6.67 -3.32 6.34 -4 6 C-3 4 -3 4 0 3 C0 2.01 0 1.02 0 0 Z " fill="#031737" transform="translate(326,113)"/>
<path d="M0 0 C2.9375 0.375 2.9375 0.375 6 1 C6.33 1.66 6.66 2.32 7 3 C4.6875 3.625 4.6875 3.625 2 4 C1.01 3.34 0.02 2.68 -1 2 C-0.67 1.34 -0.34 0.68 0 0 Z " fill="#E75A3E" transform="translate(720,113)"/>
<path d="M0 0 C2.475 0.495 2.475 0.495 5 1 C5.33 1.99 5.66 2.98 6 4 C4.02 4 2.04 4 0 4 C0 2.68 0 1.36 0 0 Z " fill="#F4481A" transform="translate(686,114)"/>
</svg>
